# xmcd
#
# Track frame offsets:
# 150
# 19800
# 46650
# 76500
# 96684
# 131634
# 146034
#
# Disc length: 2139 seconds
#
#
# Revision: 0
# Processed by: cddbd v1.5.1PL0 Copyright (c) Steve Scherf et al.
# Submitted via: FreeRIP 2.942 
#
DISCID=56085907
DTITLE=Oakley Hall - Lazy Susan
DYEAR=2005
DGENRE=Country
TTITLE0=Confidence Man
TTITLE1=Having Fun Again
TTITLE2=Lazy Susan
TTITLE3=Living in Sin in the USA
TTITLE4=If I was in El Dorado
TTITLE5=Night Lights, Dark Days
TTITLE6=11pm fandango
EXTD=
EXTT0=
EXTT1=
EXTT2=
EXTT3=
EXTT4=
EXTT5=
EXTT6=
PLAYORDER=
